<mxfile host="app.diagrams.net" agent="Mozilla/5.0 (Windows NT 10.0; Win64; x64) AppleWebKit/537.36 (KHTML, like Gecko) Chrome/130.0.0.0 Safari/537.36" version="24.8.3" pages="2">
  <diagram name="Page-1" id="0783ab3e-0a74-02c8-0abd-f7b4e66b4bec">
    <mxGraphModel dx="1290" dy="522" grid="1" gridSize="10" guides="1" tooltips="1" connect="1" arrows="1" fold="1" page="1" pageScale="1" pageWidth="850" pageHeight="1100" background="none" math="0" shadow="0">
      <root>
        <mxCell id="0" />
        <mxCell id="1" parent="0" />
        <mxCell id="1c1d494c118603dd-1" value="홈쇼핑 전화 주문" style="swimlane;html=1;childLayout=stackLayout;startSize=20;rounded=0;shadow=0;comic=0;labelBackgroundColor=none;strokeWidth=1;fontFamily=Verdana;fontSize=12;align=center;" parent="1" vertex="1">
          <mxGeometry x="41" y="20" width="760" height="990" as="geometry" />
        </mxCell>
        <mxCell id="1c1d494c118603dd-2" value="고객" style="swimlane;html=1;startSize=20;" parent="1c1d494c118603dd-1" vertex="1">
          <mxGeometry y="20" width="250" height="970" as="geometry" />
        </mxCell>
        <mxCell id="xLEdrzhZ9u7V4WRoMK23-3" value="주문(전화)" style="html=1;dashed=0;rounded=1;absoluteArcSize=1;arcSize=20;verticalAlign=middle;align=center;whiteSpace=wrap;" vertex="1" parent="1c1d494c118603dd-2">
          <mxGeometry x="50" y="160" width="107.5" height="40" as="geometry" />
        </mxCell>
        <mxCell id="1c1d494c118603dd-3" value="상담원" style="swimlane;html=1;startSize=20;" parent="1c1d494c118603dd-1" vertex="1">
          <mxGeometry x="250" y="20" width="250" height="970" as="geometry" />
        </mxCell>
        <mxCell id="xLEdrzhZ9u7V4WRoMK23-90" value="상담" style="html=1;dashed=0;rounded=1;absoluteArcSize=1;arcSize=20;verticalAlign=middle;align=center;whiteSpace=wrap;" vertex="1" parent="1c1d494c118603dd-3">
          <mxGeometry x="71.25" y="160" width="107.5" height="40" as="geometry" />
        </mxCell>
        <mxCell id="xLEdrzhZ9u7V4WRoMK23-91" style="edgeStyle=orthogonalEdgeStyle;rounded=0;orthogonalLoop=1;jettySize=auto;html=1;exitX=0.5;exitY=1;exitDx=0;exitDy=0;entryX=0.5;entryY=0;entryDx=0;entryDy=0;" edge="1" parent="1c1d494c118603dd-3" source="xLEdrzhZ9u7V4WRoMK23-11" target="xLEdrzhZ9u7V4WRoMK23-10">
          <mxGeometry relative="1" as="geometry" />
        </mxCell>
        <mxCell id="xLEdrzhZ9u7V4WRoMK23-11" value="주문 확인" style="html=1;dashed=0;rounded=1;absoluteArcSize=1;arcSize=20;verticalAlign=middle;align=center;whiteSpace=wrap;" vertex="1" parent="1c1d494c118603dd-3">
          <mxGeometry x="71.25" y="220" width="107.5" height="40" as="geometry" />
        </mxCell>
        <mxCell id="xLEdrzhZ9u7V4WRoMK23-9" style="rounded=0;html=1;labelBackgroundColor=none;startArrow=none;startFill=0;startSize=5;endArrow=classicThin;endFill=1;endSize=5;jettySize=auto;orthogonalLoop=1;strokeWidth=1;fontFamily=Verdana;fontSize=12;exitX=0.5;exitY=1;exitDx=0;exitDy=0;entryX=0.5;entryY=0;entryDx=0;entryDy=0;" edge="1" parent="1c1d494c118603dd-3" source="xLEdrzhZ9u7V4WRoMK23-90" target="xLEdrzhZ9u7V4WRoMK23-11">
          <mxGeometry relative="1" as="geometry">
            <mxPoint x="-126" y="253" as="sourcePoint" />
            <mxPoint x="-126" y="273" as="targetPoint" />
          </mxGeometry>
        </mxCell>
        <mxCell id="xLEdrzhZ9u7V4WRoMK23-10" value="주문 등록&lt;span style=&quot;color: rgba(0, 0, 0, 0); font-family: monospace; font-size: 0px; text-align: start; text-wrap: nowrap;&quot;&gt;%3CmxGraphModel%3E%3Croot%3E%3CmxCell%20id%3D%220%22%2F%3E%3CmxCell%20id%3D%221%22%20parent%3D%220%22%2F%3E%3CmxCell%20id%3D%222%22%20value%3D%22%EC%A3%BC%EB%AC%B8(%EC%A0%84%ED%99%94)%22%20style%3D%22html%3D1%3Bdashed%3D0%3Brounded%3D1%3BabsoluteArcSize%3D1%3BarcSize%3D20%3BverticalAlign%3Dmiddle%3Balign%3Dcenter%3BwhiteSpace%3Dwrap%3B%22%20vertex%3D%221%22%20parent%3D%221%22%3E%3CmxGeometry%20x%3D%2290%22%20y%3D%22210%22%20width%3D%22107.5%22%20height%3D%2240%22%20as%3D%22geometry%22%2F%3E%3C%2FmxCell%3E%3C%2Froot%3E%3C%2FmxGraphModel%3E&lt;/span&gt;" style="html=1;dashed=0;rounded=1;absoluteArcSize=1;arcSize=20;verticalAlign=middle;align=center;whiteSpace=wrap;" vertex="1" parent="1c1d494c118603dd-3">
          <mxGeometry x="71" y="282" width="107.5" height="40" as="geometry" />
        </mxCell>
        <mxCell id="1c1d494c118603dd-28" style="edgeStyle=orthogonalEdgeStyle;rounded=0;html=1;labelBackgroundColor=none;startArrow=none;startFill=0;startSize=5;endArrow=classicThin;endFill=1;endSize=5;jettySize=auto;orthogonalLoop=1;strokeWidth=1;fontFamily=Verdana;fontSize=12;exitX=0;exitY=0.5;exitDx=0;exitDy=0;entryX=0.5;entryY=0;entryDx=0;entryDy=0;" parent="1c1d494c118603dd-1" source="xLEdrzhZ9u7V4WRoMK23-1" target="xLEdrzhZ9u7V4WRoMK23-3" edge="1">
          <mxGeometry relative="1" as="geometry">
            <Array as="points">
              <mxPoint x="563" y="145" />
              <mxPoint x="104" y="145" />
            </Array>
            <mxPoint x="560" y="145" as="sourcePoint" />
            <mxPoint x="140" y="190" as="targetPoint" />
          </mxGeometry>
        </mxCell>
        <mxCell id="1c1d494c118603dd-4" value="홈쇼핑 시스템" style="swimlane;html=1;startSize=20;" parent="1c1d494c118603dd-1" vertex="1">
          <mxGeometry x="500" y="20" width="260" height="970" as="geometry" />
        </mxCell>
        <mxCell id="1c1d494c118603dd-27" style="edgeStyle=orthogonalEdgeStyle;rounded=0;html=1;labelBackgroundColor=none;startArrow=none;startFill=0;startSize=5;endArrow=classicThin;endFill=1;endSize=5;jettySize=auto;orthogonalLoop=1;strokeWidth=1;fontFamily=Verdana;fontSize=12;entryX=0.5;entryY=0;entryDx=0;entryDy=0;" parent="1c1d494c118603dd-4" source="60571a20871a0731-4" target="xLEdrzhZ9u7V4WRoMK23-1" edge="1">
          <mxGeometry relative="1" as="geometry">
            <mxPoint x="110" y="110" as="targetPoint" />
          </mxGeometry>
        </mxCell>
        <mxCell id="60571a20871a0731-4" value="" style="ellipse;whiteSpace=wrap;html=1;rounded=0;shadow=0;comic=0;labelBackgroundColor=none;strokeWidth=1;fillColor=#000000;fontFamily=Verdana;fontSize=12;align=center;" parent="1c1d494c118603dd-4" vertex="1">
          <mxGeometry x="80" y="40" width="40" height="40" as="geometry" />
        </mxCell>
        <mxCell id="1c1d494c118603dd-45" style="edgeStyle=none;rounded=0;html=1;labelBackgroundColor=none;startArrow=none;startFill=0;startSize=5;endArrow=classicThin;endFill=1;endSize=5;jettySize=auto;orthogonalLoop=1;strokeWidth=1;fontFamily=Verdana;fontSize=12" parent="1c1d494c118603dd-4" target="60571a20871a0731-5" edge="1">
          <mxGeometry relative="1" as="geometry">
            <mxPoint x="120" y="875" as="sourcePoint" />
          </mxGeometry>
        </mxCell>
        <mxCell id="60571a20871a0731-5" value="" style="shape=mxgraph.bpmn.shape;html=1;verticalLabelPosition=bottom;labelBackgroundColor=#ffffff;verticalAlign=top;perimeter=ellipsePerimeter;outline=end;symbol=terminate;rounded=0;shadow=0;comic=0;strokeWidth=1;fontFamily=Verdana;fontSize=12;align=center;" parent="1c1d494c118603dd-4" vertex="1">
          <mxGeometry x="100" y="915" width="40" height="40" as="geometry" />
        </mxCell>
        <mxCell id="xLEdrzhZ9u7V4WRoMK23-1" value="상품 진열" style="html=1;dashed=0;rounded=1;absoluteArcSize=1;arcSize=20;verticalAlign=middle;align=center;whiteSpace=wrap;" vertex="1" parent="1c1d494c118603dd-4">
          <mxGeometry x="62.5" y="110" width="107.5" height="40" as="geometry" />
        </mxCell>
        <mxCell id="xLEdrzhZ9u7V4WRoMK23-18" style="edgeStyle=orthogonalEdgeStyle;rounded=0;orthogonalLoop=1;jettySize=auto;html=1;exitX=0.5;exitY=1;exitDx=0;exitDy=0;entryX=0.5;entryY=0;entryDx=0;entryDy=0;" edge="1" parent="1c1d494c118603dd-4" source="xLEdrzhZ9u7V4WRoMK23-13" target="xLEdrzhZ9u7V4WRoMK23-16">
          <mxGeometry relative="1" as="geometry" />
        </mxCell>
        <mxCell id="xLEdrzhZ9u7V4WRoMK23-13" value="카드 조회" style="html=1;dashed=0;rounded=1;absoluteArcSize=1;arcSize=20;verticalAlign=middle;align=center;whiteSpace=wrap;" vertex="1" parent="1c1d494c118603dd-4">
          <mxGeometry x="127.5" y="363" width="107.5" height="40" as="geometry" />
        </mxCell>
        <mxCell id="xLEdrzhZ9u7V4WRoMK23-71" style="edgeStyle=orthogonalEdgeStyle;rounded=0;orthogonalLoop=1;jettySize=auto;html=1;exitX=0.5;exitY=1;exitDx=0;exitDy=0;" edge="1" parent="1c1d494c118603dd-4" source="xLEdrzhZ9u7V4WRoMK23-12">
          <mxGeometry relative="1" as="geometry">
            <mxPoint x="66" y="423" as="targetPoint" />
          </mxGeometry>
        </mxCell>
        <mxCell id="xLEdrzhZ9u7V4WRoMK23-12" value="재고 조회" style="html=1;dashed=0;rounded=1;absoluteArcSize=1;arcSize=20;verticalAlign=middle;align=center;whiteSpace=wrap;" vertex="1" parent="1c1d494c118603dd-4">
          <mxGeometry x="12.5" y="363" width="107.5" height="40" as="geometry" />
        </mxCell>
        <mxCell id="xLEdrzhZ9u7V4WRoMK23-14" style="edgeStyle=orthogonalEdgeStyle;rounded=0;orthogonalLoop=1;jettySize=auto;html=1;exitX=0.25;exitY=1;exitDx=0;exitDy=0;entryX=0.5;entryY=0;entryDx=0;entryDy=0;" edge="1" parent="1c1d494c118603dd-4" source="1c1d494c118603dd-12" target="xLEdrzhZ9u7V4WRoMK23-12">
          <mxGeometry relative="1" as="geometry" />
        </mxCell>
        <mxCell id="xLEdrzhZ9u7V4WRoMK23-15" style="edgeStyle=orthogonalEdgeStyle;rounded=0;orthogonalLoop=1;jettySize=auto;html=1;exitX=0.75;exitY=1;exitDx=0;exitDy=0;entryX=0.5;entryY=0;entryDx=0;entryDy=0;" edge="1" parent="1c1d494c118603dd-4" source="1c1d494c118603dd-12" target="xLEdrzhZ9u7V4WRoMK23-13">
          <mxGeometry relative="1" as="geometry" />
        </mxCell>
        <mxCell id="1c1d494c118603dd-12" value="" style="whiteSpace=wrap;html=1;rounded=0;shadow=0;comic=0;labelBackgroundColor=none;strokeWidth=1;fillColor=#000000;fontFamily=Verdana;fontSize=12;align=center;rotation=0;" parent="1c1d494c118603dd-4" vertex="1">
          <mxGeometry x="51.5" y="323" width="147" height="10" as="geometry" />
        </mxCell>
        <mxCell id="xLEdrzhZ9u7V4WRoMK23-26" style="edgeStyle=orthogonalEdgeStyle;rounded=0;orthogonalLoop=1;jettySize=auto;html=1;exitX=0;exitY=1;exitDx=0;exitDy=0;entryX=0.75;entryY=0;entryDx=0;entryDy=0;" edge="1" parent="1c1d494c118603dd-4" source="xLEdrzhZ9u7V4WRoMK23-16" target="xLEdrzhZ9u7V4WRoMK23-19">
          <mxGeometry relative="1" as="geometry" />
        </mxCell>
        <mxCell id="xLEdrzhZ9u7V4WRoMK23-79" style="edgeStyle=orthogonalEdgeStyle;rounded=0;orthogonalLoop=1;jettySize=auto;html=1;exitX=1;exitY=1;exitDx=0;exitDy=0;entryX=0.75;entryY=0;entryDx=0;entryDy=0;" edge="1" parent="1c1d494c118603dd-4" source="xLEdrzhZ9u7V4WRoMK23-16" target="xLEdrzhZ9u7V4WRoMK23-69">
          <mxGeometry relative="1" as="geometry" />
        </mxCell>
        <mxCell id="xLEdrzhZ9u7V4WRoMK23-16" value="카드가 유효한가" style="rhombus;whiteSpace=wrap;html=1;" vertex="1" parent="1c1d494c118603dd-4">
          <mxGeometry x="142.25" y="425" width="78" height="45" as="geometry" />
        </mxCell>
        <mxCell id="xLEdrzhZ9u7V4WRoMK23-76" style="edgeStyle=orthogonalEdgeStyle;rounded=0;orthogonalLoop=1;jettySize=auto;html=1;exitX=0.5;exitY=1;exitDx=0;exitDy=0;entryX=0.5;entryY=0;entryDx=0;entryDy=0;" edge="1" parent="1c1d494c118603dd-4" source="xLEdrzhZ9u7V4WRoMK23-19">
          <mxGeometry relative="1" as="geometry">
            <mxPoint x="125" y="639" as="targetPoint" />
          </mxGeometry>
        </mxCell>
        <mxCell id="xLEdrzhZ9u7V4WRoMK23-19" value="" style="whiteSpace=wrap;html=1;rounded=0;shadow=0;comic=0;labelBackgroundColor=none;strokeWidth=1;fillColor=#000000;fontFamily=Verdana;fontSize=12;align=center;rotation=0;" vertex="1" parent="1c1d494c118603dd-4">
          <mxGeometry x="51.5" y="605" width="147" height="10" as="geometry" />
        </mxCell>
        <mxCell id="xLEdrzhZ9u7V4WRoMK23-22" value="주문 종료" style="html=1;dashed=0;rounded=1;absoluteArcSize=1;arcSize=20;verticalAlign=middle;align=center;whiteSpace=wrap;" vertex="1" parent="1c1d494c118603dd-4">
          <mxGeometry x="66.25" y="845" width="107.5" height="40" as="geometry" />
        </mxCell>
        <mxCell id="xLEdrzhZ9u7V4WRoMK23-24" style="edgeStyle=orthogonalEdgeStyle;rounded=0;orthogonalLoop=1;jettySize=auto;html=1;exitX=0;exitY=1;exitDx=0;exitDy=0;entryX=0.5;entryY=0;entryDx=0;entryDy=0;" edge="1" parent="1c1d494c118603dd-4" source="xLEdrzhZ9u7V4WRoMK23-23" target="xLEdrzhZ9u7V4WRoMK23-28">
          <mxGeometry relative="1" as="geometry">
            <mxPoint x="30" y="495" as="targetPoint" />
          </mxGeometry>
        </mxCell>
        <mxCell id="xLEdrzhZ9u7V4WRoMK23-25" style="edgeStyle=orthogonalEdgeStyle;rounded=0;orthogonalLoop=1;jettySize=auto;html=1;exitX=1;exitY=1;exitDx=0;exitDy=0;entryX=0.25;entryY=0;entryDx=0;entryDy=0;" edge="1" parent="1c1d494c118603dd-4" source="xLEdrzhZ9u7V4WRoMK23-23" target="xLEdrzhZ9u7V4WRoMK23-19">
          <mxGeometry relative="1" as="geometry">
            <Array as="points">
              <mxPoint x="88" y="459" />
            </Array>
          </mxGeometry>
        </mxCell>
        <mxCell id="xLEdrzhZ9u7V4WRoMK23-23" value="재고가 남아있는가" style="rhombus;whiteSpace=wrap;html=1;" vertex="1" parent="1c1d494c118603dd-4">
          <mxGeometry x="27.25" y="425" width="78" height="45" as="geometry" />
        </mxCell>
        <mxCell id="xLEdrzhZ9u7V4WRoMK23-30" style="edgeStyle=orthogonalEdgeStyle;rounded=0;orthogonalLoop=1;jettySize=auto;html=1;exitX=0.5;exitY=1;exitDx=0;exitDy=0;" edge="1" parent="1c1d494c118603dd-4" source="xLEdrzhZ9u7V4WRoMK23-28" target="xLEdrzhZ9u7V4WRoMK23-29">
          <mxGeometry relative="1" as="geometry" />
        </mxCell>
        <mxCell id="xLEdrzhZ9u7V4WRoMK23-28" value="재고 요청" style="html=1;dashed=0;rounded=1;absoluteArcSize=1;arcSize=20;verticalAlign=middle;align=center;whiteSpace=wrap;" vertex="1" parent="1c1d494c118603dd-4">
          <mxGeometry x="7" y="495" width="70" height="30" as="geometry" />
        </mxCell>
        <mxCell id="xLEdrzhZ9u7V4WRoMK23-29" value="입고대기상태" style="html=1;dashed=0;rounded=1;absoluteArcSize=1;arcSize=20;verticalAlign=middle;align=center;whiteSpace=wrap;" vertex="1" parent="1c1d494c118603dd-4">
          <mxGeometry x="7" y="555" width="70" height="30" as="geometry" />
        </mxCell>
        <mxCell id="xLEdrzhZ9u7V4WRoMK23-32" value="Yes" style="text;html=1;align=center;verticalAlign=middle;whiteSpace=wrap;rounded=0;" vertex="1" parent="1c1d494c118603dd-4">
          <mxGeometry x="90" y="465" width="60" height="30" as="geometry" />
        </mxCell>
        <mxCell id="xLEdrzhZ9u7V4WRoMK23-33" value="No" style="text;html=1;align=center;verticalAlign=middle;whiteSpace=wrap;rounded=0;" vertex="1" parent="1c1d494c118603dd-4">
          <mxGeometry x="-8.5" y="465" width="60" height="30" as="geometry" />
        </mxCell>
        <mxCell id="xLEdrzhZ9u7V4WRoMK23-67" value="No" style="text;html=1;align=center;verticalAlign=middle;whiteSpace=wrap;rounded=0;" vertex="1" parent="1c1d494c118603dd-4">
          <mxGeometry x="198.5" y="463" width="60" height="30" as="geometry" />
        </mxCell>
        <mxCell id="xLEdrzhZ9u7V4WRoMK23-101" style="edgeStyle=orthogonalEdgeStyle;rounded=0;orthogonalLoop=1;jettySize=auto;html=1;exitX=0.5;exitY=1;exitDx=0;exitDy=0;entryX=0.5;entryY=0;entryDx=0;entryDy=0;" edge="1" parent="1c1d494c118603dd-4" source="xLEdrzhZ9u7V4WRoMK23-69" target="xLEdrzhZ9u7V4WRoMK23-100">
          <mxGeometry relative="1" as="geometry" />
        </mxCell>
        <mxCell id="xLEdrzhZ9u7V4WRoMK23-69" value="주문 취소" style="html=1;dashed=0;rounded=1;absoluteArcSize=1;arcSize=20;verticalAlign=middle;align=center;whiteSpace=wrap;" vertex="1" parent="1c1d494c118603dd-4">
          <mxGeometry x="155" y="700" width="80" height="40" as="geometry" />
        </mxCell>
        <mxCell id="xLEdrzhZ9u7V4WRoMK23-70" value="카드결제 및 상품 배송&amp;nbsp;" style="html=1;dashed=0;rounded=1;absoluteArcSize=1;arcSize=20;verticalAlign=middle;align=center;whiteSpace=wrap;" vertex="1" parent="1c1d494c118603dd-4">
          <mxGeometry x="20" y="700" width="80" height="44" as="geometry" />
        </mxCell>
        <mxCell id="xLEdrzhZ9u7V4WRoMK23-77" style="edgeStyle=orthogonalEdgeStyle;rounded=0;orthogonalLoop=1;jettySize=auto;html=1;exitX=0;exitY=1;exitDx=0;exitDy=0;" edge="1" parent="1c1d494c118603dd-4">
          <mxGeometry relative="1" as="geometry">
            <mxPoint x="105.45" y="673.75" as="sourcePoint" />
            <mxPoint x="66.24999999999996" y="700" as="targetPoint" />
          </mxGeometry>
        </mxCell>
        <mxCell id="xLEdrzhZ9u7V4WRoMK23-78" style="edgeStyle=orthogonalEdgeStyle;rounded=0;orthogonalLoop=1;jettySize=auto;html=1;exitX=1;exitY=1;exitDx=0;exitDy=0;entryX=0.5;entryY=0;entryDx=0;entryDy=0;" edge="1" parent="1c1d494c118603dd-4" source="xLEdrzhZ9u7V4WRoMK23-75">
          <mxGeometry relative="1" as="geometry">
            <mxPoint x="150" y="673.75" as="sourcePoint" />
            <mxPoint x="189.25" y="700" as="targetPoint" />
          </mxGeometry>
        </mxCell>
        <mxCell id="xLEdrzhZ9u7V4WRoMK23-75" value="정상적으로 진행되었는가" style="rhombus;whiteSpace=wrap;html=1;" vertex="1" parent="1c1d494c118603dd-4">
          <mxGeometry x="86" y="640" width="78" height="45" as="geometry" />
        </mxCell>
        <mxCell id="xLEdrzhZ9u7V4WRoMK23-80" value="No" style="text;html=1;align=center;verticalAlign=middle;whiteSpace=wrap;rounded=0;" vertex="1" parent="1c1d494c118603dd-4">
          <mxGeometry x="138.5" y="670" width="60" height="30" as="geometry" />
        </mxCell>
        <mxCell id="xLEdrzhZ9u7V4WRoMK23-81" value="Yes" style="text;html=1;align=center;verticalAlign=middle;whiteSpace=wrap;rounded=0;" vertex="1" parent="1c1d494c118603dd-4">
          <mxGeometry x="51.5" y="670" width="60" height="30" as="geometry" />
        </mxCell>
        <mxCell id="xLEdrzhZ9u7V4WRoMK23-86" style="edgeStyle=orthogonalEdgeStyle;rounded=0;orthogonalLoop=1;jettySize=auto;html=1;exitX=0.5;exitY=1;exitDx=0;exitDy=0;entryX=0.5;entryY=0;entryDx=0;entryDy=0;" edge="1" parent="1c1d494c118603dd-4" source="xLEdrzhZ9u7V4WRoMK23-82" target="xLEdrzhZ9u7V4WRoMK23-22">
          <mxGeometry relative="1" as="geometry" />
        </mxCell>
        <mxCell id="xLEdrzhZ9u7V4WRoMK23-82" value="" style="whiteSpace=wrap;html=1;rounded=0;shadow=0;comic=0;labelBackgroundColor=none;strokeWidth=1;fillColor=#000000;fontFamily=Verdana;fontSize=12;align=center;rotation=0;" vertex="1" parent="1c1d494c118603dd-4">
          <mxGeometry x="51.5" y="815" width="147" height="10" as="geometry" />
        </mxCell>
        <mxCell id="xLEdrzhZ9u7V4WRoMK23-93" value="결제완료 통보" style="html=1;dashed=0;rounded=1;absoluteArcSize=1;arcSize=20;verticalAlign=middle;align=center;whiteSpace=wrap;" vertex="1" parent="1c1d494c118603dd-4">
          <mxGeometry x="20" y="764" width="80" height="34" as="geometry" />
        </mxCell>
        <mxCell id="xLEdrzhZ9u7V4WRoMK23-94" style="edgeStyle=orthogonalEdgeStyle;rounded=0;orthogonalLoop=1;jettySize=auto;html=1;exitX=0.5;exitY=1;exitDx=0;exitDy=0;entryX=0.423;entryY=0.071;entryDx=0;entryDy=0;entryPerimeter=0;" edge="1" parent="1c1d494c118603dd-4" source="xLEdrzhZ9u7V4WRoMK23-70" target="xLEdrzhZ9u7V4WRoMK23-93">
          <mxGeometry relative="1" as="geometry" />
        </mxCell>
        <mxCell id="xLEdrzhZ9u7V4WRoMK23-99" style="edgeStyle=orthogonalEdgeStyle;rounded=0;orthogonalLoop=1;jettySize=auto;html=1;exitX=0.75;exitY=1;exitDx=0;exitDy=0;entryX=0.184;entryY=0.22;entryDx=0;entryDy=0;entryPerimeter=0;" edge="1" parent="1c1d494c118603dd-4" source="xLEdrzhZ9u7V4WRoMK23-93" target="xLEdrzhZ9u7V4WRoMK23-82">
          <mxGeometry relative="1" as="geometry" />
        </mxCell>
        <mxCell id="xLEdrzhZ9u7V4WRoMK23-100" value="취소 통보" style="html=1;dashed=0;rounded=1;absoluteArcSize=1;arcSize=20;verticalAlign=middle;align=center;whiteSpace=wrap;" vertex="1" parent="1c1d494c118603dd-4">
          <mxGeometry x="155" y="764" width="80" height="34" as="geometry" />
        </mxCell>
        <mxCell id="xLEdrzhZ9u7V4WRoMK23-102" style="edgeStyle=orthogonalEdgeStyle;rounded=0;orthogonalLoop=1;jettySize=auto;html=1;exitX=0.25;exitY=1;exitDx=0;exitDy=0;entryX=0.848;entryY=-0.1;entryDx=0;entryDy=0;entryPerimeter=0;" edge="1" parent="1c1d494c118603dd-4" source="xLEdrzhZ9u7V4WRoMK23-100" target="xLEdrzhZ9u7V4WRoMK23-82">
          <mxGeometry relative="1" as="geometry" />
        </mxCell>
        <mxCell id="xLEdrzhZ9u7V4WRoMK23-89" style="edgeStyle=orthogonalEdgeStyle;rounded=0;orthogonalLoop=1;jettySize=auto;html=1;exitX=1;exitY=0.5;exitDx=0;exitDy=0;entryX=0;entryY=0.5;entryDx=0;entryDy=0;" edge="1" parent="1c1d494c118603dd-1" source="xLEdrzhZ9u7V4WRoMK23-3" target="xLEdrzhZ9u7V4WRoMK23-90">
          <mxGeometry relative="1" as="geometry">
            <mxPoint x="320" y="200" as="targetPoint" />
          </mxGeometry>
        </mxCell>
        <mxCell id="xLEdrzhZ9u7V4WRoMK23-92" style="edgeStyle=orthogonalEdgeStyle;rounded=0;orthogonalLoop=1;jettySize=auto;html=1;entryX=0.5;entryY=0;entryDx=0;entryDy=0;" edge="1" parent="1c1d494c118603dd-1" source="xLEdrzhZ9u7V4WRoMK23-10" target="1c1d494c118603dd-12">
          <mxGeometry relative="1" as="geometry" />
        </mxCell>
      </root>
    </mxGraphModel>
  </diagram>
  <diagram id="4R_FE7jiq0eCW923FqJ2" name="페이지-2">
    <mxGraphModel dx="1050" dy="1691" grid="1" gridSize="10" guides="1" tooltips="1" connect="1" arrows="1" fold="1" page="1" pageScale="1" pageWidth="827" pageHeight="1169" math="0" shadow="0">
      <root>
        <mxCell id="0" />
        <mxCell id="1" parent="0" />
        <mxCell id="yXilQ9DpbUI6sy6jSNcV-7" value="" style="rounded=0;whiteSpace=wrap;html=1;fillColor=none;strokeWidth=3;" vertex="1" parent="1">
          <mxGeometry x="40" y="240" width="240" height="160" as="geometry" />
        </mxCell>
        <mxCell id="yXilQ9DpbUI6sy6jSNcV-1" value="&lt;b&gt;User&lt;/b&gt;" style="sketch=0;outlineConnect=0;fontColor=#232F3E;gradientColor=none;fillColor=#232F3D;strokeColor=none;dashed=0;verticalLabelPosition=bottom;verticalAlign=top;align=center;html=1;fontSize=12;fontStyle=0;aspect=fixed;pointerEvents=1;shape=mxgraph.aws4.user;" vertex="1" parent="1">
          <mxGeometry x="60" y="290" width="78" height="78" as="geometry" />
        </mxCell>
        <mxCell id="yXilQ9DpbUI6sy6jSNcV-8" value="" style="rounded=0;whiteSpace=wrap;html=1;fillColor=none;strokeWidth=3;" vertex="1" parent="1">
          <mxGeometry x="440" y="240" width="240" height="160" as="geometry" />
        </mxCell>
        <mxCell id="yXilQ9DpbUI6sy6jSNcV-2" value="&lt;b&gt;User&lt;/b&gt;" style="sketch=0;outlineConnect=0;fontColor=#232F3E;gradientColor=none;fillColor=#232F3D;strokeColor=none;dashed=0;verticalLabelPosition=bottom;verticalAlign=top;align=center;html=1;fontSize=12;fontStyle=0;aspect=fixed;pointerEvents=1;shape=mxgraph.aws4.user;" vertex="1" parent="1">
          <mxGeometry x="460" y="290" width="78" height="78" as="geometry" />
        </mxCell>
        <mxCell id="yXilQ9DpbUI6sy6jSNcV-9" value="" style="rounded=0;whiteSpace=wrap;html=1;fillColor=none;strokeWidth=3;" vertex="1" parent="1">
          <mxGeometry x="196" y="-70" width="342" height="210" as="geometry" />
        </mxCell>
        <mxCell id="yXilQ9DpbUI6sy6jSNcV-25" value="&lt;b&gt;&lt;font style=&quot;font-size: 15px;&quot;&gt;사용자&lt;/font&gt;&lt;/b&gt;" style="rounded=0;whiteSpace=wrap;html=1;fillColor=#dae8fc;strokeColor=#000000;strokeWidth=3;" vertex="1" parent="1">
          <mxGeometry x="170" y="240" width="110" height="30" as="geometry" />
        </mxCell>
        <mxCell id="yXilQ9DpbUI6sy6jSNcV-26" value="&lt;b&gt;&lt;font style=&quot;font-size: 15px;&quot;&gt;관리자&lt;/font&gt;&lt;/b&gt;" style="rounded=0;whiteSpace=wrap;html=1;fillColor=#d5e8d4;strokeColor=#000000;strokeWidth=3;" vertex="1" parent="1">
          <mxGeometry x="440" y="240" width="110" height="30" as="geometry" />
        </mxCell>
        <mxCell id="yXilQ9DpbUI6sy6jSNcV-28" value="&lt;span style=&quot;font-size: 15px;&quot;&gt;&lt;b&gt;MPS Server / RPYServer / Database&lt;/b&gt;&lt;/span&gt;" style="rounded=0;whiteSpace=wrap;html=1;fillColor=#e1d5e7;strokeColor=#000000;strokeWidth=3;" vertex="1" parent="1">
          <mxGeometry x="196" y="-70" width="342" height="30" as="geometry" />
        </mxCell>
        <mxCell id="yXilQ9DpbUI6sy6jSNcV-29" value="" style="shape=flexArrow;endArrow=classic;startArrow=classic;html=1;rounded=0;fillColor=#000000;" edge="1" parent="1">
          <mxGeometry width="100" height="100" relative="1" as="geometry">
            <mxPoint x="190" y="220" as="sourcePoint" />
            <mxPoint x="260" y="150" as="targetPoint" />
            <Array as="points">
              <mxPoint x="220" y="190" />
            </Array>
          </mxGeometry>
        </mxCell>
        <mxCell id="yXilQ9DpbUI6sy6jSNcV-30" value="" style="shape=flexArrow;endArrow=classic;startArrow=classic;html=1;rounded=0;fillColor=#000000;" edge="1" parent="1">
          <mxGeometry width="100" height="100" relative="1" as="geometry">
            <mxPoint x="550" y="220" as="sourcePoint" />
            <mxPoint x="480" y="150" as="targetPoint" />
            <Array as="points">
              <mxPoint x="510" y="180" />
            </Array>
          </mxGeometry>
        </mxCell>
        <mxCell id="yXilQ9DpbUI6sy6jSNcV-37" value="Web" style="shape=image;verticalLabelPosition=bottom;labelBackgroundColor=default;verticalAlign=top;aspect=fixed;imageAspect=0;image=data:image/png,iVBORw0KGgoAAAANSUhEUgAAAgAAAAIACAYAAAD0eNT6AAAAAXNSR0IArs4c6QAAAARnQU1BAACxjwv8YQUAAAAJcEhZcwAAEnQAABJ0Ad5mH3gAAB+HSURBVHhe7d0HlCxneedhZAQSIgiJnLMIIhgQeMFksMFLBgMmLcm+wtgGe2EJx2Cw8ZpDPHCAxZKBBYzJJoqw5GQWk5YchE0OAkmggBBR7P/taiFxb91Rd1fn73nO+Z36aoTm6g4z3e9UV1edDQAAAAAAAAAAAAAAAAAAAAAAAAAAAAAAAAAAAAAAAAAAAAAAAAAAAAAAAAAAAAAAAAAAAAAAAAAAAAAAAAAAAAAAAAAAAACAZuwz3gJssgum86UD02/VB2AL/DT9KB2bTqkPzJMBANg0F0q3TLdI10mHpPMm2GbfSl9I70vvSB9Lp6WZGQCATVC/1d8pPSDdJu2boGVfSy9O/5S+XR8A2Cb1xH/f9MX0K0l79JP0nHTxBLAVrpE+lPoe9CT9ZnWuwKPS2dNEvAQArKNd6dnpnKM9YFIfSH+UvjPa24EBAFgn+6V6XfMeoz1gFt9Pd051BG2vDADAujggvTbderQHDPHjdPf05tFeDwMAsA7Okd6UPPnD/Pw83TG9dbS3GxfMANbBC5Inf5ivGqxfla432tuNIwDAqj0kPbdbAgvwzVQXzTputDdmAABW6Wrp42n/0R6wKHUuwO26ZWfi9wsCLMAr05W6JbBAdcnso9NnR3vhCACwKvVWv1d0S2AJjkk1CJxcO44AAKtQv3y8PF14tAcsw3lSPfl/sHYcAQBW4bbpqG4JLNHx6TLpFAMAsAr/mu7SLefmB+m7qW6OAtugbnN9yVQXyZqn+6e64ibAUh2U6km674Ym01ZXO3tGulaCbVTX67lRqifsX6a+n4Npe08CWLo/TH0PStP2iXT5BK24YaoT+fp+HqbpF+ngBLBUde/yvgelaaprB9ThUWjNFVK9jt/3czFNd0sAS/WR1PeANGmnpEsnaNWdUt/PxjTVS2cAS3VC6ntAmrQnJWhdvZWv7+dj0npvEASwKBdMfQ9G03RogtY9KPX9fEzafySApamT9voejCbthwnozgXo+xmZtOPcDhhYpqEn7n1nvIXWfXu8ndWBBgBgmfYdb2d16ngLrRt6wat9DQAA0CADAAA0yAAAAA0yAABAgwwAANAgAwAANMgAAAANMgAAQIMMAADQoH3GW4BluG76WLecycfTYd1y7i6Q7pxuki6Vhl62mHYdl76W3pXemH6aFqGu6Q+wEWoA2P2mJNM0ZHjYm/pF6NHppNT3Z0pD+ka6a1qEvj9v4rwEALSsnvz/JT0p+Y2fRaijSa9ODx/trREDANCyR6V7dktYmBo0n5JuNdpbEwYAoFX1mv9juiUsXD3f1hCwNufeGQCAVtUJf+frlrAU107X6JarZwAAWnXT8RaW6ebj7coZAIBWXXK8hWW6xHi7cgYAoFXO+mcVDhxvV84AAAANMgAAQIMMAADQIAMAADTIAAAADTIAAECDDAAA0KC1uSYx0IS6HfCQW/p+PB3WLQer/47675nVfdMXuiUNqUtI/3W3nMmR6fBuOVjd1hdgI9QT7h73JZ+iIcPD7upz9f0ZkzZkeGBz7Up93w+TdkSal77PP3FeAgCABhkAAKBBBgAAaJABAAAaZAAAgAYZAACgQQYAAGiQAQAAGmQAAIAGGQAAoEEGAABokAEAABpkAACABhkAAKBBBgAAaJABAAAaZAAAgAYZAACgQQYAAGiQAQAAGmQAAIAGGQAAoEEGAABokAEAABpkAACABhkAAKBBBgAAaJABAAAaZAAAgAbtM94CLMN108e65Uw+ng7rloPVf0f998zqtem4bklDrppu3C1ncmQ6vFsO9qvxFmDt1RNuPWjN2pDhYXf1ufr+DGmRHZHmpe/zT5yXAACgQQYAAGiQAQAAGmQAAIAGGQAAoEEGAABokAEAaNUvxltYprX5vjMAAK06fryFZTp2vF05AwDQqi+Ot7BMa/N9ZwAAWvWW8RaW5efpnd1y9QwAQKveneZ5aWE4Ky9Ma3P/CAMA0Kq6HvqD06mjPVisr6fHdsv1YAAAWlZ3F7xLOmG0B4vx5XSbtFZ3jzQAAK17W7pWen46pT4Ac/L99LepbmG9died7jPeAixD3Q54yOvu9Rt7PZguyn6p/hsvlQ6sD8CU6qWl+k3/q+nT6bS0KPVnAWyEenL99f3IZ8hJe3CGvp+RifMSAAA0yAAAAA0yAABAgwwAANAgAwAANMgAAAANMgAAQIMWcSGgfdN10tXTIeky6eB07rR/Atp1QLpqt5zJj9MXuuVa+GH6afpaqgu/fCp9JJ2UYNHq/fwzm9cAcFC6e7pjulE6bwJoUV357RPp9enV6egEi7DSAaAuyfnIdIdUl9AE4Az1AP2e9Oz0hvE+zMtKBoC6ccZT0u+P9gA4K/8vPTq9fbQHwy11AKhD+09Mf5bqtX4ApvOq9LB0zGgPZre0AeDQVN+4VxvtATCrY9P90ltHezCbQQPApG8DvG+qu3B58gcY7kLpqFTnUMFKTDIAPDy9OHkLH8D81OPvk9Nz0rzekQUTO6sB4FHpack3J8Bi1DlVhgCWbqdvuAem5yfflACLVydY/023hIks5CTAG6b3JWf6AyxHPZjfM71ytAdnbe4DQF3Vr65iddnRHgDLckq6dvryaA92Nvd3AdQVqzz5Ayxf3TOlTro++2gPFmj3AeDG6V7dEoAVuEH6424Ji3PmlwBq/cl0zdEeAKtyfLpSqrsNwt7M7SWAuqGPJ3+A1btAemi3hMU48xGAD6U69DRPn05vTp9P300nJIBtUHdAvXC6XLpVunk6V5qX+u3/Munk0R7sadARgNPVdf7rE82rN6W6YyBAK+pmaY9PJ6a+x8VZ2pVgb/q+Z6Zp5Emp7x9OW72F5W4JoFWXSB9JfY+R0/bRBHvT9z0zTSP1ntO+fzhNJ6XrJoDW1UsBdae/vsfKabt8gj593y/TdLZL7faBWfplqpMIAejUSwKfTX2PmdP03xP06ft+mabRrX77/sE0/VMC4Df9l3Ra6nvc1HZW/39/J70n1Ts5zpMWpe/Pn6azPX23D0zbqamOIgCwp9elvsdOtVENA7dLi9D3501cXQfgkDREvc71zW4JwG4cIW3bxdLrUx1tXys1AFyxW87sqPEWgD3VoeAfd0saVfd2ODL99mhvTdQAcP5uOTNvUwHYu3qZ9DPdkobtn57aLddDDQB1puoQx4y3APSrK6FCXTHyyt1y9WoAOKBbzqxuWgHA3h033sLvj7crVwPAme8HMIt6ywMAe+dxktNddrxduRoAAIDGGAAAYHm+N96unAEAAJanbr2/FgwAALAc30gf7parZwAAgOV4fPpFt1w9AwAALN6L04u65XowAADA4vwsPTE9cLS3RgwAADBfx6a6TP4/pLry39+ktbwWRO9tAqcIgJ0dkfoePydtV4Ld9X2vTJwjAADQIAMAADTIAAAADTIAAECDDAAA0CADAAA0yAAAAA0yAABAgwwAANAgAwAANMgAAAANMgAAQIMMAADQIAMAADTIAAAADTIAAECDDAAA0CADAAA0yAAAAA0yAABAgwwAANAgAwAANMgAAAANMgAAQIMMAADQIAMAADTIAAAADTIAAECDDAAA0KB90q+65czqcwCwd0ekXd1yJh9IX+iWrLl6Tv1e+lJ6czoxLcrQ5+/RJxgSADurAaDv8VPb3U/S09L50iL0/ZkT5yUAAFiM/dLD04fSpeoD68QAAACLdWh6SzpgtLcmDAAAsHhXT4/rluvBAAAAy/EXaVHnA0zNAAAAy3HudOtuuXoGAABYnmuMtytnAACA5TlovF05AwAALM/x4+3KGQAAYHm+ON6unAEAAJbj5+md3XL1DAAAsBwvTMd1y9UzAADA4n09PbZbrgcDAAAs1pfTbdLa/PZfDAAAsBjfT3+bDktrc/Lf6epe/nVbwCHqcwCwd3U74F3dciYvTR/olqy5ek6t3/S/mj6dTkuLMvT5+4x7A88YADurAaDv8XPShgwPbK++75WJ8xIAADTIAAAADTIAAECDDAAA0CADAAA0yAAAAA0yAABAgwwAANAgAwAANMgAAAANMgAAQIMMAADQIAMAADTIAAAADTIAAECDDAAA0CADAAA0yAAAAA0yAABAgwwAANAgAwAANMgAAAANMgAAQIMMAADQIAMAADTIAAAADTIAAECDDAAA0CADAAC7O3u6bvrz9Jz09nR0OiadnH6Vfpi+nT6f3piemh6YDklsiPo/ckgA7OyI1Pf4OWm70qIdkO6dXp/qyb3vv2PSvpX+d7p1qmGCxej72k9T7wenCYCdrfMAcGh6YTop9f3ZQ/tOelK6aGK++r7e09T7wWkCYGfrOABcJ9Vv+6elvj9z3p2anpcumZiPvq/zxDkHAKAtB6VnpY+kO6Z90jLsnx6cvpSekPZLrJABAKAd9YRfJ/M9NK3qtfk61+Dx6RPpWvUBVsMAALD96rft+q3/demC9YE1cLX04fSwtKyjEJyJAQBgu9Uh/3ek+q1/3Z5o62WBZ6Y6CfEc9QGWxwAAsL0unt6bbjzaW1/3T29O5x3tsRQGAIDtVE/+H0zXHO2tv99Lb0h1VIAlMAAAbJ/zp7eky432NsfN0yvSvqM9FsoAALBd6smzfpPe1DPs650KdVlhFswAALBd6qp7N+mWG+sv0x92SxbFAACwPW6bHt4tN97z06a9hLFRDAAA26EusFN37tuW99QfmOrSwSyIAQBgOzwxXbZbbo26m+DduiXzZgAA2HxXTHWhn0X4ePq7dJtUA0a9V78u2lM39bl+umd6aTo+LcLT0zm7JfPWe5egKQJgZ4u+G2C9Xt73783aL1I9qU9zDYG6t8Bd0mdT3+cc0iJvh7zJ+r5W09T7wWkCYGeLHAAuk36W+v69Wfpcqt/sZ1VHluvKfiemvs8/S19NLhW8p76v1cR5CQBgs9VwMK8nx7pnwA1T3Sp4VqelF6XDUg0T81AvPfxBt2ReDAAAm6sew+/TLQerJ+3/muo393n4cho6TJzZ/cZb5sQAALC56tK5l+6Wg7w/1ZGEeu1/nk5KdWW/r4/2hrldOrhbMg8GAIDNVRf+Gepbqd5q9/PR3vwdk26f6jyFIeqdAHXDIObEAACwuW4x3g7xyPT9brkwn0l1kaKhbjneMgcGAIDNdME09Fa/n06v7JYL9/dp6LUCDABzZAAA2Ex1t7+hl/39n6nO2l+GH6bndsuZXT6dr1sylAEAYDNdebyd1U/SW7rl0tTFhYYa+vdmzAAAsJmuMt7O6j3pR91yaeqtgf/ZLWc29O/NmAEAYDNddLydVb31bxWGXhfgYuMtAxkAADZT3ZRniG+Pt8tWRwGGGPr3ZswAALCZhj4Rfme8XbY6GXAIA8CcGAAANtO+4+2slv36/+mGXhDITYHmxAAAsJlOGW9ndZ7xdtnOP97OalWDy9YxAABspqFPhHUb4VW44ng7q5PHWwYyAABsphPG21ldY7xdtrpD4BBD/96MGQAANtPQ99PXnQSX7epp6IV8hv69GTMAAGymo8fbWdWlhJd9Vb266+BQQ99GyJgBAGAzfWm8HeLw8XYZ6hr+Q/+8unzx17olQxkAADZT3WL3pG45s3pCXtaV9R6TLtItZ/bv6RfdkqEMAACbqZ4I/61bzuyA9MxuuVB1/f6/7JaDvHe8ZQ4MAACb693j7RB3Tw/tlgtxUHpD2n+0N0zdwIg5MQAAbK7XpF91y0GekW7XLefqnOnV6ZDR3jB16eIPdkvmwQAAsLnqhLh5PCmePb0y/dFobz4ulN6VbjnaG+4V6ZfdknkwAABsthePt0PV+QAvT09LQ+8zcFiq2/7eaLQ3Hy8Zb5mjOnw0JAB2dkTqe/yctF1pb/ZLdWvfvn9v1r6a6s+sIwPTuHiqv2udoNj3eWftbYk99X2tpqn3g9MEwM4WOQCUR6a+f29o9VbDv0510aC9qZP77pRemur+BH2fZ2g3Teyp72s1cfuMF0PU5wBg72oAOKsn8Z3U+/WP7Ja96h75dWGgRb6n/7vpC+l7qZ7o6+z+uqHQ1dK506LUeQS36pbsZujz929OBDMEwM4WfQSg3Cf1/bub3M/Tqm5atAn6vmYT5yRAgO3wL+l93XJr1NsT62UIFsAAALAd6re6+6bjR3ubr574n9AtWQQDAMD2+Ga6f6phYJPVOQZ1hcJTR3sshAEAYLsclf6hW26kuthPHcn44miPhTEAAGyfx6UXdMuN81fp9d2SRTIAAGyfegngwaku77sp6r/50enZoz0WzgAAsJ3qanz3TE8f7a23OuxfA8uTR3sshQEAYHvVb9WPGFcDwTr6Qbp92ulCRyyAAQBg+9VRgBumr4z21sdHU9046K2jPZbKAADQhtOfbJ+XVn1b3XqbX92/oIaSuvEQK2AAAGjHD9ND0vXTB+oDS3ZaqisWXiU9Na3ryxJNMAAAtOcT6SbpxqmuG7DoCwfVNf3/OR2a6p4Fdfti1kD9Hz8kAHa2jJsBDXHp9KhUF9/p+/Nn7WPpYekiifnr+5pPU+8HpwmAna37AHBmdXi+bj/8slS3GP5Z6vtv2r0fp0+m+rveK108sVh9/z9MXN3LvxZD1OcAYO/qSXHIk3g9Ia/qbXL7psulS6XzpLr3/3nTCemUVCf01bsLvpWGPp8wncFf719PAzMGwM426QgAm6Pve2XinAQIAA0yAABAgwwAANAgAwAANMgAAAANMgAAQIMMAADQIAMAADTIAAAADTIAAECDDAAA0CADAAA0yAAAAA0yAABAgwwAANAgAwAANMgAAAANMgAAQIMMAADQIAMAADTIAAAADTIAAECDDAAA0CADAAA0yAAAAA0yAABAgwwAANAgAwAANMgAAAAN2if9qlvOrD4HAHt3RNrVLWfy0vSBbsmaOy19L30pHV0fWKChz9+jTzAkAHZWA0Df46e2u8+me6ZF/aLc92dOnJcAAGAxDk0vS69J56oPrBMDAAAs1l3SK9NavWRuAACAxbt9enC3XA8GAABYjselc3bL1TMAAMByXCzdrFuungEAAJbnd8bblTMAAMDyXHi8XTkDAAAsz4nj7coZAABgeb423q6cAQAAlued4+3KGQAAYDmOSo4AAEBDTk6P7JbrwQAAAItVT/73SF8Y7a0JAwAALE4d9q/3/r91tLdG6sYEdVvAIdbq5gYAa6huB7yrW87kA2mtfntkR8emeq2/Tvhb5Gv+Q5+/f/P+wDMEwM5qAOh7/Jy0IcMD26vve2XivAQAAA0yAABAgwwAANAgAwAANMgAAAANMgAAQIMMAADQIAMAADTIAAAADZrHpYABWKzD05HdEn5t0PO3IwAA0CADAAA0yAAAAA0yAABAgwwAANAgAwAANMgAAAANMgAAQIMMAADQIAMAADTIAAAADTIAAECDDAAA0CADAAA0yAAAAI2q+wkPCYCdHZH6Hj8nbVeC3fV9r0ycIwAA0CADAAA0yAAAAA0yAABAgwwAANAgAwAANMgAAAANMgAAQIMMAADQIAMAADTIAAAADTIAACzePuPtrOra7TBXNQD8pFvO7KDxFoB+B4+3szp1vIW5qQHgR91yZhcZbwHod9HxdlYnj7cwNzUAnNAtZ3b18RaAPZ09XaVbzuyk8RbmpgaAr3bLmd12vAVgTzdIF+iWM/vKeAtzUwPA0d1yZndI5+uWAOzm3uPtrOo8rW92S5ifGgA+2y1nVie3PLxbAnAmV0gP6pYz+3w6rVvCfF011VtMhlQnEl4zAdDZN70j9T1mTtPTE/Tp+36ZptH7U797pg/MWp1L4B0BAJ1npb7Hymm7fYI+fd8v0zTyj6nvH05bvU513QTQqv3SC1PfY+S01dHVcyfo0/c9M00jN0p9/3CWTklPTAcmgJbUSdGfS32PjbP0ogR70/c9M00j9TJAvRug738waz9I9c17t3S15IqBwDbZP10m3TTVLz2fTn2PhUO6WYK96fuembgzX5/6T9KR3RKAFftI+p1uCb3qiXxmZx4A6nWr/0iXHO0BsEp3TG/sltBr0ABQ1wE43U/TY7olACv0/vSmbgmL0XeLynenm3dLAJbsF+k66TOjPdi7uR0BON3hyZ2nAFbjCcmTPwvXdwSg3D29slsCsCTvSb+Xfjnag53N/QhAeVVy+UmA5flyukfy5M9S7O0IQKl/Vlezuv9oD4BFOTb9bqohACa1kCMApT7xrvTS0R4Ai1CXUK8L/njyZ6l2GgDKz9N/S14OAJi/uh37DVPd8heW6qwGgFJHAh6R7ppOqA8AMNg/pxukb432YMkmGQBO99p0/fTe0R4As6jX++vIalV3+4OVmGYAKPUa1S3SfZKpFWBy9ZLq/0pXTvXbP6zUTu8COCvnTDXBPjJdqT4AwB5+nOodVU9N36gPwJwMehfAkAHgdPU56u0rdVSgbl5x0QTQsp+kup7/y1K9fOrqqizCygeA3V013SRdIx2S6n7ZB6dzp3MlgG1wWjoxnZS+l7407kPpw+nUBIs0aACAM7teqm+oIT0vte5aqe9rM20PStvmuqnv7zppH0tAp+9nZOKmPQmQ7fan4+0QR463LftUqt8Ah3rAeAsAC3P+dErqnRQn7IOJTp0g2/c1mrZ6SW2bOAIA89P3MzJxjgBwugemA7rlzBz+P0PdTbPe7z3U/cZbAJi7Ohm0Tl7qnRInrJ7s9k+cod721fe1mqZj0jnStnAEAOan72dk4hwBoNwy1Ts2hnhBqrc+cYZ/THWm+BAXSbfplgDzYwCgDD35r57kjuiWnMl/pnd0y0GcDAjA3F0s/Sz1HiKasDcn+tXFsfq+ZtNUl5DdlgtseQkA5qfvZ2TiHAHg8DT0NWYn/+3dUenr3XJm+6Z7d0sAGK6eWOqmTr3T4YTVk9vZE3v32NT3tZumum/8NnAEAOan72dk4hwBaFsdnr5Et5xZnej2y27JXjw/1WH8IQ5NdTtugLkwALRt6Ml/de5A3eWMndVb+V7XLQdxMiAAg10x1dn7vYeGJqzudMZkbpb6vobTdEIaerGmVfMSAMxP38/IxDkC0K4/S0PvBunkv8m9Nw19Hf/AdJduCTCMAaBNdVvmulb9EJ9Prv0/nXncKMnLAMBcGADadK90cLec2XNTHUZici9JdcOlIW6ertAtAWZnAGjTg8fbWf0ovbRbMoUT09DzJuplm6FHbwBo0PXSHieDTJnX/md3rdT3NZ2mb6ZNvfaCkwBhfvp+RibOEYD2DH3rX5nHa9mt+lT6cLec2SVT3cAJACZyUKrXoHunwQn7t8QwdQi/72s7Ta9Im2joEZBtuSIiDFUnc/f9jEza0IuTsWH+KvV9I0zTfRLD7J+OS31f30k7NQ09kXMVLp/6/j6T9oMEdCcD9/2MTJqfpYbUyWNfTH3fCJN2bNovMdxTU9/XeJr+PG2aC6a+v8s0XTNB6+6X+n4+Jm3oTcrYILdKfd8E0/TkxHzUlRjrHgp9X+dJ+3jaNDWInpT6/j6T9owErXtH6vv5mLT3JxrxmtT3TTBp9WRVh2+Zn7elvq/1NP122jQfTX1/l0n7cfK9SMv+IPX9bEzTCxINqDv+1Qkffd8Ek/aWxHzV3Rj7vtbT9Ky0aY5IfX+XafpEOm+C1tTRw++nvp+LaXpoogFPSH3fANN0+8R81Xv5v5H6vt6TVicTbtp5GfdIfX+XaauXQC6doBV1U7Hvpr6fh2mrd+Sw5fZN30p93wCT9rW0qReeWXePS31f82m6W9okdSLg0CNSp1dva31SOjTBNqrH8Hrif1UaegfX0/te+q2hd4NjOa6T7pCunerBc5rf+OotZ0MfHOvtIl/tlszZedKVu+XM6nBgXR1wGnXkoAa7d6U3pp+mZao/c95Hlep2yd9OPxntweY7d7pMqvf8z9Nz0l8YANZbXfGtrrpXJ3zAotTwUNeI+NfR3nLcOb22WwJLdoP0YQPA+qrfCuse8hcd7cFi1WHB/5GePtpbvLoM+efSVUZ7wLJ8KP1uLbyuu57qEH89+V92tAeLV78M1LUi6sHhK/WBBauBow7Z32W0ByzLQ9LRtXAzoPX0x8lvRixbPR48JS3ryODLk3tLwPK8Ox3VLZf3g850/j1dv1vC0tXFhequhctw9VRv5zvnaA9YlJ+lOpH886O9cARg/dRZ4Yd1S1iJesvRstTd/R7RLYEFenT69ZN/MQCsnzrpz/8vrFJdOXKZnp1e1i2BBXh9ema3PIMnmvVT79uHVVrF9+AD0v/plsAc/d9071Qn3v4GA8D6qVvuwiqt4nuwXp+8a3r7aA+Yh4+kuuBW3UBrDwaA9VNXdaurmcGqrOo2w3VZ39ulF4/2gCHemm6Zjh/t9TAArJ86TFOXSYVVODG9r1uuRN0j4P7p8HRqfQCYSt26/fGpfvP/UX1gbwwA6+mpqQ6JwrI9I9Vv4qtWl8Cue2DU+5aByXwy3Tj9XapBYEeuBLie6gpp9TpsHQ6FZamrAP5JOssHjiWpGxa9JNVbBevS2C6LDf3q6p2PSn+a6hbjbIFdqe5sVi8LSIusrg52/rSu6qJlt0l1S9R6aaDv7yC1VB0lrp/bu6e6ZfDUXAlw/dX9AOomLXU74Lo7IMxLPZG+Pz03vak+sCEOTLdIN091xcxD0kEJtlndlv3L6WOpztOpl8f2eoLfJAwAm+Ui6UKpbhYEQ9RLTMekbTnXpI5eHJzOl7y0ybaon886J6d+Xk+uDwAAAAAAAAAAAAAAAAAAAAAAAAAAAAAAAAAAAAAAAAAAAAAAAAAAAAAAAAAAAAAAAAAAAAAAAAAAAAAAAAAAAAAAAAAAAAAAwPTOdrb/D8gV2+6wxCr1AAAAAElFTkSuQmCC;fontStyle=1" vertex="1" parent="1">
          <mxGeometry x="580" y="296" width="72" height="72" as="geometry" />
        </mxCell>
        <mxCell id="yXilQ9DpbUI6sy6jSNcV-38" value="App" style="shape=image;verticalLabelPosition=bottom;labelBackgroundColor=default;verticalAlign=top;aspect=fixed;imageAspect=0;image=data:image/png,iVBORw0KGgoAAAANSUhEUgAAAgAAAAIACAMAAADDpiTIAAAAA3NCSVQICAjb4U/gAAAACXBIWXMAAEwQAABMEAFZWm3HAAAAGXRFWHRTb2Z0d2FyZQB3d3cuaW5rc2NhcGUub3Jnm+48GgAAAeNQTFRF////AAAAAAAAAAAAAAAAAAAAAAAAAAAAAAAAAAAAAAAAAAAAAAAAAAAAAAAAAAAAAAAAAAAAAAAAAAAAAAAAAAAAAAAAAAAAAAAAAAAAAAAAAAAAAAAAAAAAAAAAAAAAAAAAAAAAAAAAAAAAAAAAAAAAAAAAAAAAAAAAAAAAAAAAAAAAAAAAAAAAAAAAAAAAAAAAAAAAAAAAAAAAAAAAAAAAAAAAAAAAAAAAAAAAAAAAAAAAAAAAAAAAAAAAAAAAAAAAAAAAAAAAAAAAAAAAAAAAAAAAAAAAAAAAAAAAAAAAAAAAAAAAAAAAAAAAAAAAAAAAAAAAAAAAAAAAAAAAAAAAAAAAAAAAAAAAAAAAAAAAAAAAAAAAAAAAAAAAAAAAAAAAAAAAAAAAAAAAAAAAAAAAAAAAAAAAAAAAAAAAAAAAAAAAAAAAAAAAAAAAAAAAAAAAAAAAAAAAAAAAAAAAAAAAAAAAAAAAAAAAAAAAAAAAAAAAAAAAAAAAAAAAAAAAAAAAAAAAAAAAAAAAAAAAAAAAAAAAAAAAAAAAAAAAAAAAAAAAAAAAAAAAAAAAAAAAAAAAAAAAAAAAAAAAAAAAAAAAAAAAAAAAAAAAAAAAAAAAAAAAAAAAAAAAAAAAAAAAAAAAldcqRwAAAKB0Uk5TAAECAwQGBwgKCw0OERQZHR8gISIjJSYnKiwtLjAyMzQ3ODk6Ozw9P0BBQkRKTE1PUFFSVlhZXmBjZGZnaWprcHJ1d3h5enx9fn+AgoOEhYaHiIqMj5CRkpOUlZaXmJmcnZ+goaOmqausrbCxs7a3uLq/wMHDxMjJy8zOz9DR0tPU1dfY2tzg4eLj5Obn6err7e7v8PHy8/X2+Pn6+/z9/lOF3agAAAl9SURBVHja7dz/f1V1HQfwswtuQEIEbEKSA7WwG2OWDamuuESp+CoSq1TwCyhJk1BsETEFUkI2EWktWBd2/tSatG/3wd12r/ZBz/v5+vGc88P78X497879uiz76mXV45U9r54c/HQ8L0jGr557+5Xdle6Vmcyb7+x+Py9szu1ar+E5Uir/5u95wXOpr1zS9N3TdT4PkfNdur5LNpzOw+T0Bn3XpP14HirH23U+8+a/t5oHS3WvpwJTWdafB0z/Ms3fyZoLechcWKP7iZSv5UFzraz9LKtU87CpVvTfM8dNsvd731i79bcjRSbQE73/zhv1VjO05X+XfPNUgQHc6Izd/4or9TYzcP/0Vb8qsIArKyL33zZQ95HRMeOylndnv5X6s4fW/+RMUQQMtAUGcKzuWnpnf0A8OuPUi60ThxbtLoqAY3H731Z3KWP3zb7ytelTf5p8B60w7x5ti9r/kqG6OzlTc+n26VPfnTy2rigAhpYEBbCz/k5erv2ocOrMraltlUaLImBnzP6Xz/ECf1fNtd+aOnN9+uClogAYWR4SQN8cK/lDzbU/nD61avLY/cV5LdgXsf/VY3PdFmsu3j99asfksZ82sOGxD//WYD78d0IAY6sDAjg650q+Pevalr9Mn7n54J1jKxf+FnG1977G52vdcTudgKPx+m+d+yncnxfNvPjpmaf+sXXi0JZPFr7e55sb8dfpAIy2hgOweZ6V7Jhx7QM1HxgM95/4uJH1rmvyc4qEN4HN4QAcme/P9i8XT176/S/6XfGO5kZ8MCGAI9H6bxmedydnOls+f7V46Av/Qujnzc34i4QAhluCAdi4kK38872XTlz+Erb7rx81M+KPb6Z8JbgxGIADaV9oXzr1xwZzKvFvlA4EAzCYy6wMBgMwovKat4Nj9b9U47VZGgpAu8JrE+u3YpsUXptNoQD0KLw2sb4g3qvw2vSGAnBQ4bU5GArAYYXX5jAAAAAAAAAAAAAAAAAAAAAAAAAAAAAAAAAAAAAAAAAAAAAAAAAAAAAAAAAAAAAAAAAAAAAAAADA1xhAwP+Y3QYAAAAAAAAAAAAAAAAAAAAAAAAAAAAAAAAAAAAAAAAAAAAAAAAAAAAAAAAAAAAAAAAAAAAAAAAAAAAAAAAAAAAAAAAAAAAAAAAAAAAAAAAAAAAAAAAAAAAAAAAAAAAAAAAAAAAAAAAAAAAAAAAAAAAAAAAAAAAAAAAAAAAAAAAAAAAAAAAAAAAAAAAAAAAAAAAAAAAAAAAAAAAAAAAAAAAAAAAAAAAAAAAAAAAAAAAAAAAAAAAAAAAAAAAAAAAAAAAAAAAAAAAAAAAAAAAAAAAAAAAAAAAAAAAAAAAAAAAAAAAAAAAAAAAAAAAAAAAAAAAAAAAAAAAAAAAAAAAAAAAAAAAAAAAAAAAAAAAAAAAAAAAAAAAAAAAAAAAAAAAAAAAAAAAAAAAAAAAAAAAAAAAAAAAAAAAAAAAAAAAAAAAAAAAAAAAAAAAAAAAAAAAAAAAAAAAAAAAAAAAAAAAAAAAAAAAAAAAAAAAAAAAAAAAAAAAAAAAAAAAAAAAAAAAAAAAAAAAAAAAAAAAAAAAAAAAAAAAAAAAAAAAAAAAAAAAAAAAAAAAAAAAAAAAAAAAAAAAAAAAAAAAAAAAAAAAAAAAAAAAAAAAAAAAAAAAAAAAAAAAAAAAAAAAAAAAAAAAAAAAAAAAAAAAAAAAAAAAAAAAAAAAAAAAAAAAAAAAAAAAAAAAAAAAAAAAAAAAAAAAAAAAAAAAAAAAAAAAAAAAAAAAAAAAAAAAAAAAAAAAAAAAAAAAAAAAAAAAAAAAAAAAAAAAAAAAAAAAAAAAAAAAAAAAAAAAAAAAAAAAAAAAAAAAAAAAAAAAAAAAAAAAAAAAAAAAAAAAAAAAAAAAAAAAAAAAAAAAAAAAAAAAAAAAAAAAAAAAAAAAAAAAAAAAAAAAAAAAAAAAAAAAAAAAAAAAAAAAAAAAAAAAAAAAAAAAAAAAAAAAAAAAAAAAAAAAAAAAAAAAAAAAAAAAAAAAAAAAAAAAAAAAAAAAAAAAAAAAAAAAAAAAAAAAAAAAAAAAAAAAAAAAAAAAAAAAAAAAAAAAAAAAAAAAAAAAAAAAAAAAAAAAAAAAAAAAAAAAAAAAAAAAAAAAAAAAAAAAAAAAAAAAAAAAAAAAAAAAAAAAAAAAAAAAAAAAAAAAAAAAAAAAAAAAAAAAAAAAAAAAAAAAAAAAAAAAAAAAAAAAAAAAAAAAAAAAAAAAAAAAAAAAAAAAAAAAAAAAAAAAAAAAAAAAAAAAAAAAAAAAAAAAAAAAAAAAAAAAAAAAAAAAAAAAAAAAAAAAAAAAAAAAAAAAAAAAAAAD3GoAAAAAAAAAAAAAAAAAAAAAAAAAAAAAAAAAAAPCl5frFd07UzTsXrwNQZABnn1s732RrnzsLQEEBfNC1sOG6PgCggADGny0tdLrSs+MAFA3AaHcj83WPAlAsANVyYwOWqwAUCkCl0QkrABQJwFuNj/gWAMUBUO1ofMSOKgCFAXC4qDMCsLA82syMjwJQFABXS83MWLoKwP8tB5Pu9o3mhnwj6ZAHQwHoTbrbfc0NuS/pkL2hAPQk3e1TzQ35VNIhe0IB2JR0t080N+QTSYfcFApAe9Ldbm9uyO1Jh2wPBWBp0t3ub27I/UmHXBoKQDaScrdvNjfjmylnHInVfzaYcrmfLW5mxMWfpZxxMBiAA0n/vD7WzIiPJR3xQDAAG5Nu9/VmRnw96YgbgwFoGU653dvrGp9w3e2UEw63BAOQHUn6+DrZ+IAnkw54JFr/2ea0n7U90+h8z6Sdb3M4AK1pv3Z5e0tj421JegPIR1vDAciOpn2I3XyykeGevJl2uqPx+s9Wj6XdcX5owf+Lru1Q4tHGVgcEkPUl3nJ+eeuCvhhS2no59WR9EfvPlo+k3nP+0QuPzGOg9MgLHyUfa2R5SADZzvwe5NbQ2Xfr5q/Dt+7FTDtj9p8tGcrlvxlaEhRAtk35E9mWhc0x7ef5sbj9Z20D+h9oCwwgW3Elev9XVmSh03kjdv83OrPg6YkNoCcLn0o1bv3Viv6zrHwtav/XytqfyJoLMfu/sEb3d7KsP2L//cs0P/URzL5wTwSqe0t6n5GO38fq/3i7zmvy8Htx6j+9Qd93SffFGPWf79L13bPoB7/7uOjtX+oru/nPlYf2vF/c9s/tWq/h+bPq8cqeV08OfjpelN7Hr557+5Xdle6VX8Fl/wfpSYCMnXpipgAAAA5lWElmTU0AKgAAAAgAAAAAAAAA0lOTAAAAAElFTkSuQmCC;fontStyle=1" vertex="1" parent="1">
          <mxGeometry x="170" y="293" width="72" height="72" as="geometry" />
        </mxCell>
      </root>
    </mxGraphModel>
  </diagram>
</mxfile>
